<?xml version="1.0" encoding="UTF-8"?> <svg xmlns="http://www.w3.org/2000/svg" width="85.351" height="109.28" viewBox="0 0 85.351 109.28"><g id="Group_13024" data-name="Group 13024" transform="translate(0 0)"><path id="Path_11570" data-name="Path 11570" d="M101.338,20.608a12.607,12.607,0,0,0-6.864,3.982A14.666,14.666,0,0,0,90.15,35.415a14.223,14.223,0,0,0,4.5,10.657,15.427,15.427,0,0,0,11.069,4.33,16.82,16.82,0,0,0,7.345-1.608,14.556,14.556,0,0,0,5.659-4.7H104.859V24.741h25.329V63.757c-.885.631-1.794,1.233-2.749,1.8A40.937,40.937,0,0,1,105.828,71.3,42.712,42.712,0,0,1,90.7,68.585,39.131,39.131,0,0,1,77.916,60.8a35.14,35.14,0,0,1-8.58-11.53,32.643,32.643,0,0,1-2.993-13.754A32.277,32.277,0,0,1,69.307,21.9a35.039,35.039,0,0,1,8.609-11.563A38.952,38.952,0,0,1,90.994,2.489,39.72,39.72,0,0,1,101.41,0Z" transform="translate(-66.343)" fill="#6d6f72"></path><path id="Path_11571" data-name="Path 11571" d="M86.055,5.708v9.618h28.876V65.052h7.829V5.708Z" transform="translate(-47.539 5.445)" fill="#001378"></path><path id="Path_11572" data-name="Path 11572" d="M132.889,70.5,132.883,0H86.055V8.783h39.071V70.5Z" transform="translate(-47.539 0)" fill="#e50019"></path><path id="Path_11573" data-name="Path 11573" d="M79.964,10.136,78.514,6.7l.655-.279L79.958,8.3c.063.145.129.317.2.512l.1.26.09.264.023-.01-.023-.27-.027-.274c-.016-.244-.029-.426-.037-.545l-.061-2.257.594-.25,1.571,1.6c.092.088.213.223.367.4l.18.207.178.2.021-.008-.115-.24-.123-.248c-.09-.2-.166-.356-.229-.5l-.787-1.874L82.531,5l1.45,3.433-1.061.447L81.636,7.557c-.09-.094-.209-.233-.369-.408l-.176-.207-.172-.2-.029.006.029.27.021.27c.021.227.037.408.037.543l.068,1.845Z" transform="translate(-54.733 4.773)" fill="#fff"></path><path id="Path_11574" data-name="Path 11574" d="M79.323,9.923,77.39,6.732l.6-.37L79.926,9.55Z" transform="translate(-55.805 6.068)" fill="#fff"></path><path id="Path_11575" data-name="Path 11575" d="M77,10.714l.543-.424a.406.406,0,0,1,.053.057c.141.154.258.229.356.227a1.15,1.15,0,0,0,.477-.268,1.426,1.426,0,0,0,.455-.479.426.426,0,0,0-.117-.406c-.141-.182-.264-.266-.354-.254a2.827,2.827,0,0,0-.725.424,2.233,2.233,0,0,1-.995.475c-.207,0-.438-.16-.682-.477-.3-.393-.426-.707-.363-.936a2.316,2.316,0,0,1,.864-.944,2.067,2.067,0,0,1,1.053-.549c.236-.01.492.162.756.5l.086.106-.541.418-.053-.055c-.16-.209-.3-.3-.4-.3a2.051,2.051,0,0,0-.643.393c-.25.2-.389.348-.414.455s.031.258.18.449c.115.141.213.215.3.221a.79.79,0,0,0,.4-.182l.326-.215a2.279,2.279,0,0,1,1.041-.5c.211,0,.446.168.707.5a1.052,1.052,0,0,1,.3.87,2.181,2.181,0,0,1-.8.9,2.13,2.13,0,0,1-1.02.537c-.231.02-.467-.125-.705-.43Z" transform="translate(-57.479 6.83)" fill="#fff"></path><path id="Path_11576" data-name="Path 11576" d="M75.63,12.247l.481-.5a.5.5,0,0,1,.053.047.579.579,0,0,0,.387.174,1.191,1.191,0,0,0,.43-.34,1.378,1.378,0,0,0,.385-.535.426.426,0,0,0-.172-.381c-.172-.162-.3-.233-.393-.2a3,3,0,0,0-.657.524,2.159,2.159,0,0,1-.916.612c-.207.031-.453-.09-.741-.373-.363-.342-.526-.627-.5-.87a2.363,2.363,0,0,1,.723-1.063,2.173,2.173,0,0,1,.959-.7,1.051,1.051,0,0,1,.825.389l.1.092-.471.5-.063-.053c-.184-.176-.334-.258-.438-.233a1.823,1.823,0,0,0-.576.477,1.131,1.131,0,0,0-.35.51c-.016.111.07.25.246.416a.48.48,0,0,0,.328.18.8.8,0,0,0,.375-.236l.287-.266a2.318,2.318,0,0,1,.961-.647,1.062,1.062,0,0,1,.772.4,1.042,1.042,0,0,1,.424.815,2.214,2.214,0,0,1-.662,1.01,2.2,2.2,0,0,1-.93.676.876.876,0,0,1-.766-.326Z" transform="translate(-59.053 8.238)" fill="#fff"></path><path id="Path_11577" data-name="Path 11577" d="M76.075,13.039l-2.987-2.231.42-.568L76.5,12.474Z" transform="translate(-59.909 9.768)" fill="#fff"></path><path id="Path_11578" data-name="Path 11578" d="M75.657,14.351c-.322.594-.631.924-.918.989a2.534,2.534,0,0,1-1.465-.467c-.754-.4-1.178-.746-1.282-1.026s.029-.75.391-1.409c.318-.6.627-.926.912-.995a2.352,2.352,0,0,1,1.419.426c.782.428,1.221.776,1.327,1.057s-.018.754-.383,1.424m-.5-.334q.334-.627.238-.827a3.678,3.678,0,0,0-1.057-.709,1.959,1.959,0,0,0-.916-.336c-.143.031-.324.248-.541.651q-.314.574-.215.778a2.583,2.583,0,0,0,.922.653,2.565,2.565,0,0,0,1.032.418c.141-.016.32-.229.537-.627" transform="translate(-60.985 10.899)" fill="#fff"></path><path id="Path_11579" data-name="Path 11579" d="M74.461,17.984l-3.572-1.09.352-1.151,2.267-.418c.111-.021.307-.049.586-.084l.289-.031.287-.037.01-.029-.238-.059-.234-.064-.469-.137-2.046-.621.207-.682,3.568,1.092-.352,1.149-2.089.371c-.186.033-.408.07-.672.106l-.328.051-.334.043-.006.025.227.063.234.063.465.135,2.052.625Z" transform="translate(-62.006 12.954)" fill="#fff"></path><path id="Path_11580" data-name="Path 11580" d="M74.331,18.259l-3.1-.019-.009,1.748-.637-.006.022-2.451,3.728.025Z" transform="translate(-62.294 16.723)" fill="#fff"></path><path id="Path_11581" data-name="Path 11581" d="M71.746,21.884,71.483,20.3l-.741-.113-.123-.739,3.879.615.18,1.051L71.2,22.96l-.123-.729Zm.488-.244,1.811-.957-2.018-.3Z" transform="translate(-62.264 18.549)" fill="#fff"></path><path id="Path_11582" data-name="Path 11582" d="M74.918,22.31,71.37,23.447l-.221-.668,3.56-1.139Zm.709-.69-.418.133-.147-.459.414-.135Zm.207.637-.42.139-.145-.465.418-.129Z" transform="translate(-61.758 20.184)" fill="#fff"></path><path id="Path_11583" data-name="Path 11583" d="M73.411,26.82l-.512-.076.063-.426a1.863,1.863,0,0,1-.893-1.036,2,2,0,0,1-.311-1.376c.1-.272.492-.576,1.172-.909a3,3,0,0,1,1.63-.471c.3.072.6.432.912,1.084a1.962,1.962,0,0,1,.309,1.376c-.113.274-.528.582-1.237.928a6.16,6.16,0,0,1-1.067.436Zm-.186-2.272.51.082-.129.918a2.528,2.528,0,0,0,.25-.1l.342-.166.412-.2c.313-.148.488-.3.526-.442a1.317,1.317,0,0,0-.2-.758c-.207-.43-.387-.649-.528-.664a3.3,3.3,0,0,0-1.2.442c-.487.238-.762.428-.813.563s.039.43.262.887a1.015,1.015,0,0,0,.42.481Z" transform="translate(-61.215 21.472)" fill="#fff"></path><path id="Path_11584" data-name="Path 11584" d="M77.052,26.27l.426.561-1.97,1.5a1.328,1.328,0,0,1-1,.381,2.012,2.012,0,0,1-.94-.819,2.251,2.251,0,0,1-.584-1.161c0-.256.207-.543.612-.848L75.6,24.361l.424.559-2,1.532c-.223.162-.326.307-.326.43a1.307,1.307,0,0,0,.33.621c.225.3.395.461.51.49s.3-.041.528-.215Z" transform="translate(-60.01 23.239)" fill="#fff"></path><path id="Path_11585" data-name="Path 11585" d="M77.07,27l-.668.7,1.268,1.2-.361.38-1.262-1.211-.731.763,1.343,1.287-.411.427-1.855-1.767,2.576-2.7,1.845,1.76-.414.43Z" transform="translate(-58.663 24.877)" fill="#fff"></path><path id="Path_11586" data-name="Path 11586" d="M79.257,28.9l-.527.86,1.431.874-.308.505-1.431-.869-.8,1.305-.606-.367,1.942-3.19,2.106,1.293-.311.509Z" transform="translate(-56.158 26.731)" fill="#fff"></path><path id="Path_11587" data-name="Path 11587" d="M78.836,32.367,80.3,28.942l1.688.725a1.441,1.441,0,0,1,.78.59,1.173,1.173,0,0,1-.1.895,1.608,1.608,0,0,1-.426.658.79.79,0,0,1-.6.055l-.01.025a.618.618,0,0,1,.283.912l-.326.75-.647-.279.27-.621a.509.509,0,0,0-.3-.756l-.94-.406-.494,1.157Zm1.378-1.419.934.395a.689.689,0,0,0,.5.076.818.818,0,0,0,.317-.43.84.84,0,0,0,.1-.518c-.027-.1-.15-.191-.363-.283l-.979-.42Z" transform="translate(-54.425 27.609)" fill="#fff"></path><path id="Path_11588" data-name="Path 11588" d="M83.641,33.133l-1.557-.414-.408.633-.721-.188,2.153-3.292,1.028.277.262,3.925-.709-.19Zm-.023-.549-.125-2.04-1.11,1.718Z" transform="translate(-52.405 28.496)" fill="#fff"></path><path id="Path_11589" data-name="Path 11589" d="M87.329,30.63l-.4,3.7-1.188-.123L84.9,32.063c-.037-.106-.107-.3-.191-.557l-.092-.279-.088-.279H84.5l-.012.24-.018.248-.047.487L84.2,34.05l-.7-.078.387-3.709,1.2.127.762,1.977c.07.18.15.393.236.643l.109.315.1.32.027,0,.016-.238.02-.24.047-.481.223-2.13Z" transform="translate(-49.983 28.869)" fill="#fff"></path><path id="Path_11590" data-name="Path 11590" d="M88.613,32.764l.7-.057.012.127a1.271,1.271,0,0,1-.2,1.026,2.224,2.224,0,0,1-1.233.332c-.735.063-1.2-.025-1.383-.25a4.274,4.274,0,0,1-.414-1.9,1.578,1.578,0,0,1,.248-1.235,2.379,2.379,0,0,1,1.409-.408,1.628,1.628,0,0,1,1.079.15,1.275,1.275,0,0,1,.35.928l.006.078-.707.057-.006-.09c-.021-.244-.082-.4-.176-.459a1.249,1.249,0,0,0-.637-.047c-.436.031-.7.109-.774.223a1.9,1.9,0,0,0-.055.963,3.61,3.61,0,0,0,.221,1.258c.094.119.354.164.784.133a1.411,1.411,0,0,0,.672-.166c.1-.082.141-.248.119-.494Zm-.594,1.665.3.3-.594.5-.213-.2Z" transform="translate(-47.512 28.98)" fill="#fff"></path><path id="Path_11591" data-name="Path 11591" d="M90.817,32.885l-1.569.354-.07.75-.727.17.383-3.914,1.032-.238,2.056,3.355-.713.166Zm-.277-.475L89.483,30.66,89.291,32.7Z" transform="translate(-45.253 28.625)" fill="#fff"></path><rect id="Rectangle_3227" data-name="Rectangle 3227" width="0.708" height="3.731" transform="translate(46.871 58.033) rotate(-16.455)" fill="#fff"></rect><path id="Path_11592" data-name="Path 11592" d="M94.3,29.833l-.655.231c-.018-.037-.021-.057-.031-.072-.084-.191-.172-.3-.262-.326a1.037,1.037,0,0,0-.533.1,1.411,1.411,0,0,0-.59.3.413.413,0,0,0-.02.424c.082.219.162.338.254.358a2.8,2.8,0,0,0,.828-.174,2.145,2.145,0,0,1,1.088-.127c.2.068.365.3.5.67a1.2,1.2,0,0,1,.043,1,2.456,2.456,0,0,1-1.125.621,2.141,2.141,0,0,1-1.174.182q-.343-.106-.559-.723l-.047-.125.657-.229.023.072c.086.25.184.383.287.41a1.786,1.786,0,0,0,.733-.162,1.222,1.222,0,0,0,.543-.293.624.624,0,0,0-.031-.483.475.475,0,0,0-.213-.307.736.736,0,0,0-.446.033l-.373.107a2.262,2.262,0,0,1-1.149.135c-.2-.066-.363-.3-.508-.7a1.013,1.013,0,0,1,0-.918,3.291,3.291,0,0,1,2.177-.778c.233.061.408.276.533.639Z" transform="translate(-42.406 27.699)" fill="#fff"></path><path id="Path_11593" data-name="Path 11593" d="M94.213,29.44l.364.89,1.616-.673.2.482-1.613.675.4.976,1.713-.718.232.552-2.369.985-1.434-3.447,2.354-.976.229.546Z" transform="translate(-40.601 26.887)" fill="#fff"></path><path id="Path_11594" data-name="Path 11594" d="M73.716,44.348V45.88c0,2.507-.635,3.025-3.644,3.025-2.71,0-3.728-.471-3.728-3.335V43.627c0-2.823,1.108-3.324,3.728-3.324,2.065,0,3.691-.1,3.63,2.62H72.091c0-1.243-.61-1.227-2.018-1.227-1.9,0-2.081.293-2.1,1.93v1.942c.021,1.766.3,1.948,2.1,1.948,1.542,0,2.018-.033,2.018-1.637v-.3H69.957V44.348Z" transform="translate(-66.342 38.446)" fill="#001378"></path><path id="Path_11595" data-name="Path 11595" d="M72.951,41.67l-.033.784h.055a1.533,1.533,0,0,1,1.581-.85c1.252,0,1.557.746,1.557,1.864v.475H74.776v-.3c0-.6-.053-.948-.719-.948-.85,0-1.1.479-1.075,1.252V47.6H71.564V41.67Z" transform="translate(-61.362 39.688)" fill="#001378"></path><path id="Path_11596" data-name="Path 11596" d="M79.22,46.85h-.035c-.285.791-1.149.813-1.839.813-1.346,0-2.212-.281-2.212-1.882,0-1.424.742-1.817,2.212-1.817.721,0,1.434.01,1.772.674h.045v-.766c0-.959-.076-1.3-1.268-1.3-.617,0-1.114.061-1.114.828H75.359c0-1.731,1.188-1.8,2.536-1.8,1.9,0,2.689.291,2.689,2.282V47.6H79.163Zm-2.665-1.069c0,.834.34.909,1.3.909.756,0,1.309-.063,1.309-.909,0-.827-.612-.848-1.309-.848-.725,0-1.3,0-1.3.848" transform="translate(-57.957 39.688)" fill="#001378"></path><path id="Path_11597" data-name="Path 11597" d="M80.976,41.67v.895h.051c.311-.869,1.022-.961,1.858-.961,1.559,0,2.032.641,2.032,2.087V47.6H83.5V43.839c0-.86-.2-1.149-1.108-1.149-1.247,0-1.413.584-1.413,1.649V47.6H79.552V41.67Z" transform="translate(-53.742 39.688)" fill="#001378"></path><path id="Path_11598" data-name="Path 11598" d="M87.955,47.911h-.039a1.762,1.762,0,0,1-1.852.959c-2.2,0-2.269-1.387-2.269-3.2,0-1.741.238-2.859,2.269-2.859.725,0,1.481.139,1.782.858h.061v-3.33h1.421v8.466H87.906Zm-2.739-2.241c0,1.336-.031,2.122,1.262,2.122,1.46,0,1.4-.713,1.4-2.122,0-1.264-.17-1.772-1.4-1.772-.979,0-1.262.279-1.262,1.772" transform="translate(-49.695 38.481)" fill="#001378"></path><path id="Path_11599" data-name="Path 11599" d="M92.839,47.415h3.951V48.8H91.213V40.339h1.625Z" transform="translate(-42.619 38.48)" fill="#001378"></path><path id="Path_11600" data-name="Path 11600" d="M98.916,47.8c-.332,1.346-.6,2.394-2.261,2.394-.205,0-.406-.031-.608-.043V49.072a2.579,2.579,0,0,0,.3.035c.895,0,1.026-.854,1.153-1.544h-.688l-1.952-5.922h1.467l1.5,5.043h.023L99,41.641h1.446Z" transform="translate(-39.138 39.723)" fill="#001378"></path><path id="Path_11601" data-name="Path 11601" d="M104.214,45.338c0,1.942-.7,2.325-2.7,2.325-2.175,0-2.652-.631-2.652-3.025,0-2.077.33-3.034,2.652-3.034,1.764,0,2.7.274,2.7,2.147H102.8c0-.9-.281-1.065-1.28-1.065-1.217,0-1.227.428-1.227,1.952,0,1.481-.022,1.942,1.227,1.942,1.165,0,1.28-.2,1.28-1.243Z" transform="translate(-35.32 39.688)" fill="#001378"></path><path id="Path_11602" data-name="Path 11602" d="M108.428,46.879c0,1.864-1.071,1.952-2.765,1.952-2.269,0-2.73-.719-2.73-3.011,0-2.126.338-3.048,2.73-3.048,2.439,0,2.765.709,2.765,3.3h-4.078c0,1.274.039,1.682,1.313,1.682.789,0,1.342.01,1.342-.873Zm-1.422-1.712c0-1.221-.182-1.309-1.342-1.309-1.227,0-1.313.256-1.313,1.309Zm.149-3.861-2.188.969-.3-.582,1.981-1.313Z" transform="translate(-31.437 38.52)" fill="#001378"></path><path id="Path_11603" data-name="Path 11603" d="M112.627,45.711c0,1.864-1.069,1.952-2.761,1.952-2.272,0-2.734-.719-2.734-3.011,0-2.126.34-3.048,2.734-3.048,2.433,0,2.761.709,2.761,3.3h-4.072c0,1.274.033,1.682,1.311,1.682.791,0,1.342.01,1.342-.873ZM111.209,44c0-1.221-.182-1.309-1.342-1.309-1.233,0-1.311.256-1.311,1.309Z" transform="translate(-27.432 39.688)" fill="#001378"></path><path id="Path_11604" data-name="Path 11604" d="M68.111,49.267H71.88V50.6H68.111v3.5H66.482V45.637h5.6v1.384h-3.97Z" transform="translate(-66.21 43.535)" fill="#001378"></path><path id="Path_11605" data-name="Path 11605" d="M71.205,46.965l-.031.78h.053a1.541,1.541,0,0,1,1.583-.844c1.254,0,1.555.748,1.555,1.864v.469H73.034v-.3c0-.6-.057-.95-.725-.95-.844,0-1.092.487-1.071,1.251v3.66H69.818V46.965Z" transform="translate(-63.028 44.741)" fill="#001378"></path><path id="Path_11606" data-name="Path 11606" d="M76.569,52.147h-.033c-.287.791-1.155.815-1.843.815-1.342,0-2.212-.285-2.212-1.886,0-1.421.746-1.817,2.212-1.817.721,0,1.436.014,1.772.678h.045v-.766c0-.965-.078-1.3-1.264-1.3-.619,0-1.118.057-1.118.825H72.706c0-1.729,1.186-1.794,2.54-1.794,1.9,0,2.689.3,2.689,2.28v3.712H76.51ZM73.9,51.077c0,.838.34.916,1.3.916.756,0,1.309-.072,1.309-.916,0-.825-.61-.844-1.309-.844-.721,0-1.3,0-1.3.844" transform="translate(-60.488 44.741)" fill="#001378"></path><path id="Path_11607" data-name="Path 11607" d="M77.415,46.965v.891h.045c.317-.862,1.028-.955,1.86-.955,1.563,0,2.036.643,2.036,2.087v3.906H79.929V49.134c0-.856-.19-1.151-1.1-1.151-1.243,0-1.413.59-1.413,1.647v3.263H76V46.965Z" transform="translate(-57.135 44.741)" fill="#001378"></path><path id="Path_11608" data-name="Path 11608" d="M84.707,50.635c0,1.942-.7,2.327-2.7,2.327-2.175,0-2.65-.633-2.65-3.025,0-2.081.326-3.036,2.65-3.036,1.762,0,2.7.272,2.7,2.145H83.284c0-.9-.281-1.063-1.276-1.063-1.217,0-1.231.43-1.231,1.954,0,1.479-.021,1.936,1.231,1.936,1.163,0,1.276-.2,1.276-1.239Z" transform="translate(-53.927 44.741)" fill="#001378"></path><path id="Path_11609" data-name="Path 11609" d="M88.1,49.937c0,2.292-.313,3.025-2.788,3.025s-2.784-.733-2.784-3.025.311-3.036,2.784-3.036,2.788.735,2.788,3.036m-4.154.01c0,1.579.107,1.927,1.366,1.927s1.368-.348,1.368-1.927c0-1.6-.1-1.964-1.368-1.964s-1.366.36-1.366,1.964" transform="translate(-50.901 44.741)" fill="#001378"></path><rect id="Rectangle_3228" data-name="Rectangle 3228" width="3.003" height="1.086" transform="translate(37.702 93.976)" fill="#001378"></rect><path id="Path_11610" data-name="Path 11610" d="M89.183,52.714h3.948V54.1H87.558V45.635h1.625Z" transform="translate(-46.105 43.533)" fill="#001378"></path><path id="Path_11611" data-name="Path 11611" d="M92.18,46.841H90.758v-1.2H92.18Zm0,7.259H90.758V48.171H92.18Z" transform="translate(-43.053 43.535)" fill="#001378"></path><path id="Path_11612" data-name="Path 11612" d="M92.138,45.637h1.424v3.33h.057c.3-.729,1.057-.86,1.782-.86,2.03,0,2.267,1.116,2.267,2.855,0,1.817-.063,3.206-2.267,3.206a1.771,1.771,0,0,1-1.854-.959H93.5l.059.891H92.138Zm1.424,5.324c0,1.409-.037,2.118,1.417,2.118,1.3,0,1.264-.772,1.264-2.118,0-1.487-.279-1.772-1.264-1.772-1.227,0-1.417.508-1.417,1.772" transform="translate(-41.736 43.535)" fill="#001378"></path><path id="Path_11613" data-name="Path 11613" d="M99.569,52.147h-.031c-.285.791-1.151.815-1.841.815-1.34,0-2.214-.285-2.214-1.886,0-1.421.744-1.817,2.214-1.817.725,0,1.43.014,1.768.678h.047v-.766c0-.965-.08-1.3-1.264-1.3-.621,0-1.118.057-1.118.825H95.71c0-1.729,1.182-1.794,2.538-1.794,1.9,0,2.687.3,2.687,2.28v3.712H99.512Zm-2.663-1.071c0,.838.338.916,1.3.916.76,0,1.311-.072,1.311-.916,0-.825-.612-.844-1.311-.844-.715,0-1.3,0-1.3.844" transform="translate(-38.545 44.741)" fill="#001378"></path><path id="Path_11614" data-name="Path 11614" d="M100.416,46.965v.891h.051c.315-.862,1.02-.955,1.858-.955,1.559,0,2.03.643,2.03,2.087v3.906h-1.422V49.134c0-.856-.188-1.151-1.1-1.151-1.243,0-1.413.59-1.413,1.647v3.263H99V46.965Z" transform="translate(-35.194 44.741)" fill="#001378"></path><path id="Path_11615" data-name="Path 11615" d="M106.429,52.147h-.035c-.283.791-1.153.815-1.839.815-1.344,0-2.212-.285-2.212-1.886,0-1.421.742-1.817,2.212-1.817.719,0,1.434.014,1.77.678h.047v-.766c0-.965-.08-1.3-1.268-1.3-.619,0-1.114.057-1.114.825h-1.422c0-1.729,1.184-1.794,2.536-1.794,1.9,0,2.689.3,2.689,2.28v3.712h-1.421Zm-2.665-1.071c0,.838.338.916,1.3.916.756,0,1.313-.072,1.313-.916,0-.825-.614-.844-1.313-.844-.717,0-1.3,0-1.3.844" transform="translate(-32.001 44.741)" fill="#001378"></path><path id="Path_11616" data-name="Path 11616" d="M107.239,46.841h-1.424v-1.2h1.424Zm0,7.259h-1.424V48.171h1.424Z" transform="translate(-28.689 43.535)" fill="#001378"></path><path id="Path_11617" data-name="Path 11617" d="M110.931,48.581c0-.711-.373-.711-1.133-.711s-1.27,0-1.27.782c0,.582.156.608,1.4.664,1.4.066,2.64-.037,2.64,1.888,0,1.6-1.268,1.759-2.769,1.759-1.612,0-2.694,0-2.694-1.932h1.424c.022.858.225.963,1.27.963.848,0,1.35.022,1.35-.789,0-.522-.037-.782-1.471-.805-2.179-.033-2.573-.326-2.573-1.839,0-1.626,1.172-1.659,2.694-1.659,1.165,0,2.552.023,2.552,1.68Z" transform="translate(-27.46 44.741)" fill="#001378"></path><path id="Path_11618" data-name="Path 11618" d="M66.426,58.122V51.457h3.38c1.254,0,1.544.59,1.544,1.755,0,.705-.141,1.176-.832,1.4v.02c.885.16,1.03.8,1.03,1.628,0,1.2-.445,1.858-1.573,1.858Zm.756-3.759h2.194c.907,0,1.221-.207,1.221-1.247,0-.9-.35-.995-1.139-.995H67.182Zm0,3.1h2.392c.819,0,1.217-.1,1.217-1.124,0-.879-.135-1.325-1.125-1.3H67.182Z" transform="translate(-66.264 49.087)" fill="#5a5b5e"></path><path id="Path_11619" data-name="Path 11619" d="M77.187,55.759v.172c0,1.233-.952,1.3-1.989,1.3-1.823,0-2.1-.606-2.1-2.382,0-1.938.43-2.394,2.1-2.394,1.512,0,1.989.352,1.989,2.071v.471H73.83c0,1.477.106,1.663,1.368,1.663.957,0,1.274-.061,1.274-.719v-.178Zm-.729-1.335c-.031-1.321-.2-1.4-1.26-1.4-1.268,0-1.315.334-1.368,1.4Z" transform="translate(-59.9 50.035)" fill="#5a5b5e"></path><path id="Path_11620" data-name="Path 11620" d="M81.581,57.474c-.246.881-.449,1.745-1.569,1.745a1.559,1.559,0,0,1-.32-.047v-.543a.892.892,0,0,0,.244.027c.735,0,.811-.975.973-1.508h-.248l-1.69-4.67h.721l1.44,4.156h.012l1.049-4.156h.735Z" transform="translate(-54.297 50.061)" fill="#5a5b5e"></path><path id="Path_11621" data-name="Path 11621" d="M85.485,52.5l-.039.58.018.02a1.34,1.34,0,0,1,1.323-.653,1.15,1.15,0,0,1,1.3,1.317v.34h-.668v-.315c0-.574-.2-.774-.782-.774-.873,0-1.155.42-1.139,1.245v2.909h-.7V52.5Z" transform="translate(-48.739 50.035)" fill="#5a5b5e"></path><path id="Path_11622" data-name="Path 11622" d="M92.411,52.451c1.729,0,2.067.42,2.067,2.394s-.338,2.382-2.067,2.382-2.075-.416-2.075-2.382.34-2.394,2.075-2.394m0,4.209c1.252,0,1.338-.2,1.338-1.815s-.086-1.825-1.338-1.825-1.344.2-1.344,1.825.088,1.815,1.344,1.815" transform="translate(-43.455 50.035)" fill="#5a5b5e"></path><path id="Path_11623" data-name="Path 11623" d="M99.694,56.527h-.02c-.244.569-.838.674-1.456.674-1.233,0-1.669-.5-1.669-1.725v-3h.7v3c0,.756.055,1.159.961,1.159.989,0,1.493-.16,1.493-1.274V52.478h.7v4.67h-.715Z" transform="translate(-37.527 50.061)" fill="#5a5b5e"></path><path id="Path_11624" data-name="Path 11624" d="M105.506,53.6H103.7v2.958c.01.51.141.625.658.625.657,0,.657-.346.657-.791V56.04h.666v.348c0,.922-.381,1.362-1.34,1.362-1.092,0-1.34-.311-1.34-1.409V53.6h-.631v-.569H103V51.9h.7v1.125h1.807Z" transform="translate(-31.977 49.511)" fill="#5a5b5e"></path><path id="Path_11625" data-name="Path 11625" d="M108.636,54.021h.016c.223-.559.9-.621,1.444-.621,1.2,0,1.78.32,1.759,1.62v3.1h-.7V54.964c0-.85-.332-1-1.125-1-1.143,0-1.391.36-1.391,1.434v2.72h-.7V51.457h.7Z" transform="translate(-26.667 49.087)" fill="#5a5b5e"></path></g></svg> 